<svg xmlns="http://www.w3.org/2000/svg" width="19.167" height="18.937" viewBox="0 0 19.167 18.937">
  <g id="noun-admin-3324336" transform="translate(-134.16 -66.733)">
    <path id="Path_664" data-name="Path 664" d="M146.754,78.88a.583.583,0,0,0-.323.26l-.84,1.441h0a.583.583,0,0,0-.068.409,2.426,2.426,0,0,0,.511,1.1v.188a2.26,2.26,0,0,0-.489.959h-11a.388.388,0,0,1-.385-.446,7.693,7.693,0,0,1,2.02-4.3,7.4,7.4,0,0,1,5.581-1.9,7.22,7.22,0,0,1,5.8,2.152h0a2.859,2.859,0,0,0-.807.137Zm6.429,4.261a1.714,1.714,0,0,1,.132.3l-.594,1.018h0a1.531,1.531,0,0,1-.318.031.582.582,0,0,0-.638-.039l-.691.4h0a.583.583,0,0,0-.291.567,1.38,1.38,0,0,1-.19.26l-1.177,0h0a1.684,1.684,0,0,1-.187-.264.583.583,0,0,0-.284-.571l-.691-.4h0a.583.583,0,0,0-.637.031,1.527,1.527,0,0,1-.319-.031l-.587-1.022a1.653,1.653,0,0,1,.136-.3.575.575,0,0,0,.35-.532l0-.8a.575.575,0,0,0-.346-.536,1.662,1.662,0,0,1-.132-.291l.594-1.018h0a1.312,1.312,0,0,1,.319-.031.582.582,0,0,0,.637.039l.695-.4h0a.586.586,0,0,0,.288-.567,1.526,1.526,0,0,1,.19-.264l1.177.008a1.47,1.47,0,0,1,.187.26.582.582,0,0,0,.284.571l.691.4a.583.583,0,0,0,.637-.035,1.362,1.362,0,0,1,.319.035l.586,1.022a1.49,1.49,0,0,1-.136.291.579.579,0,0,0-.35.532l0,.8a.568.568,0,0,0,.345.532Zm-2.638-1.849a1.046,1.046,0,1,0,.484.636,1.045,1.045,0,0,0-.484-.636Zm-8.789-6.274a4.147,4.147,0,1,0-2.928-1.215,4.143,4.143,0,0,0,2.928,1.215Z" fill="#fff"/>
  </g>
</svg>
