<svg xmlns="http://www.w3.org/2000/svg" width="16.417" height="17.549" viewBox="0 0 16.417 17.549">
  <g id="noun-building-4524448" transform="translate(-103.94 -16.969)">
    <path id="Path_675" data-name="Path 675" d="M103.94,132.942H109.6V118.79H103.94Zm3.4-12.737h1.132v1.132h-1.132Zm0,2.547h1.132v1.132h-1.132Zm0,2.547h1.132v1.132h-1.132Zm0,2.547h1.132v1.132h-1.132Zm0,2.547h1.132v1.132h-1.132Zm-2.264-10.19H106.2v1.132h-1.132Zm0,2.547H106.2v1.132h-1.132Zm0,2.547H106.2v1.132h-1.132Zm0,2.547H106.2v1.132h-1.132Zm0,2.547H106.2v1.132h-1.132Z" transform="translate(0 -98.424)" fill="#fff"/>
    <path id="Path_676" data-name="Path 676" d="M375.45,390.3h4.529v1.132H375.45Z" transform="translate(-262.453 -360.877)" fill="#fff"/>
    <path id="Path_677" data-name="Path 677" d="M392.43,441.21h3.4v3.4h-3.4Z" transform="translate(-278.866 -410.089)" fill="#fff"/>
    <path id="Path_678" data-name="Path 678" d="M290.61,16.969V34.518h2.83v-3.4h-.566V28.857h5.661v2.264h-.566v3.4h2.83V16.969Zm8.774,9.34h-7.359V25.177h7.359Zm0-2.264h-7.359V22.913h7.359Zm0-2.264h-7.359V20.649h7.359Zm0-2.264h-7.359V18.384h7.359Z" transform="translate(-180.443)" fill="#fff"/>
  </g>
</svg>
