<svg xmlns="http://www.w3.org/2000/svg" width="14.727" height="14.026" viewBox="0 0 14.727 14.026">
  <g id="noun-logout-3070445" transform="translate(-115.004 -46.662)">
    <path id="Path_72292" data-name="Path 72292" d="M119.212,55.779a2.1,2.1,0,1,1,0-4.208h2.805V48.065a1.4,1.4,0,0,0-1.4-1.4h-4.208a1.4,1.4,0,0,0-1.4,1.4V59.286a1.4,1.4,0,0,0,1.4,1.4h4.208a1.4,1.4,0,0,0,1.4-1.4V55.779Z" fill="#c2b6f1"/>
    <path id="Path_72293" data-name="Path 72293" d="M242.844,121.85a.7.7,0,0,0-.152-.764l-4.207-4.207a.7.7,0,0,0-.992.992l3.011,3.011h-8.126a.7.7,0,0,0,0,1.4H240.5l-3.011,3.011a.7.7,0,1,0,.992.992l4.207-4.207a.7.7,0,0,0,.152-.228Z" transform="translate(-113.167 -67.907)" fill="#c2b6f1"/>
  </g>
</svg>
