<svg xmlns="http://www.w3.org/2000/svg" width="17.21" height="17.375" viewBox="0 0 17.21 17.375">
  <path id="noun-settings-4530343" d="M193.964,112.045l-1.461-.313a.418.418,0,0,1-.3-.244l-.574-1.5a.349.349,0,0,1,0-.365l.852-1.253a.4.4,0,0,0,0-.522l-1.479-1.287a.4.4,0,0,0-.487,0l-1.1.783a.382.382,0,0,1-.383,0l-1.444-.5a.382.382,0,0,1-.174-.33l-.261-1.5a.4.4,0,0,0-.47-.243h-1.914a.4.4,0,0,0-.383.313l-.452,1.427a.349.349,0,0,1-.209.261l-1.3.661a.366.366,0,0,1-.4,0l-1.114-.922a.4.4,0,0,0-.452,0l-1.444,1.479a.4.4,0,0,0,0,.5l.731,1.131a.451.451,0,0,1,0,.365l-.5,1.409a.435.435,0,0,1-.348.331l-1.514.417a.4.4,0,0,0-.3.383v1.862a.4.4,0,0,0,.313.4l1.549.313a.366.366,0,0,1,.278.226l.557,1.235a.383.383,0,0,1,0,.365l-.835,1.444a.383.383,0,0,0,0,.487l1.34,1.3a.453.453,0,0,0,.522,0l1.131-.818a.416.416,0,0,1,.4,0l1.479.661a.4.4,0,0,1,.226.3l.261,1.5a.418.418,0,0,0,.4.331h1.983a.417.417,0,0,0,.4-.331l.226-1.566a.4.4,0,0,1,.226-.313l1.409-.644a.453.453,0,0,1,.4,0l1.235.835a.382.382,0,0,0,.5,0l1.392-1.461a.4.4,0,0,0,0-.5l-.783-1.2a.418.418,0,0,1,0-.383l.557-1.357a.314.314,0,0,1,.278-.226l1.427-.313a.383.383,0,0,0,.313-.383v-1.74a.383.383,0,0,0-.037-.327.384.384,0,0,0-.277-.178Zm-8.281,5.306a3.932,3.932,0,1,1,2.762-1.133,3.932,3.932,0,0,1-2.762,1.133Z" transform="translate(-177.088 -104.761)" fill="#fff"/>
</svg>
