<svg xmlns="http://www.w3.org/2000/svg" width="13.447" height="20" viewBox="0 0 13.447 20">
  <g id="Group_10270" data-name="Group 10270" transform="translate(0)">
    <g id="noun-certificate-1825937" transform="translate(0 0)">
      <path id="Path_72308" data-name="Path 72308" d="M296.835,344.012a4.084,4.084,0,0,1-2.171-.622l-.34,6.938,2.1-1.88a.592.592,0,0,1,.679-.077.482.482,0,0,1,.106.072l2.107,1.884-.339-6.921a4.084,4.084,0,0,1-2.145.606Z" transform="translate(-290.063 -330.328)" fill="#c2b6f1"/>
      <path id="Path_72309" data-name="Path 72309" d="M286.29,196.139a3.141,3.141,0,1,1-3.678-2.49,3.141,3.141,0,0,1,3.678,2.49" transform="translate(-276.434 -187.156)" fill="#c2b6f1"/>
      <path id="Path_72310" data-name="Path 72310" d="M199.462,64.858h2l.218-4.461a4.109,4.109,0,1,1,6.176.029l.217,4.432h1.933a1.453,1.453,0,0,0,1.452-1.452V49.582a1.453,1.453,0,0,0-1.452-1.452H199.462a1.453,1.453,0,0,0-1.452,1.452V63.407a1.453,1.453,0,0,0,1.452,1.452Z" transform="translate(-198.011 -48.13)" fill="#c2b6f1"/>
    </g>
  </g>
</svg>
