<svg xmlns="http://www.w3.org/2000/svg" width="17.485" height="17.485" viewBox="0 0 17.485 17.485">
  <g id="noun-dashboard-1943893" transform="translate(-122.5 -52.5)">
    <path id="Path_660" data-name="Path 660" d="M130.57,53.173a.674.674,0,0,0-.673-.673h-6.725a.674.674,0,0,0-.673.673V59.9a.674.674,0,0,0,.673.673H129.9a.674.674,0,0,0,.673-.673Z" fill="#fff"/>
    <path id="Path_661" data-name="Path 661" d="M375.57,53.173a.674.674,0,0,0-.673-.673h-6.725a.675.675,0,0,0-.673.673V59.9a.675.675,0,0,0,.673.673H374.9a.674.674,0,0,0,.673-.673Z" transform="translate(-235.585)" fill="#fff"/>
    <path id="Path_662" data-name="Path 662" d="M368.173,305.57H374.9a.674.674,0,0,0,.673-.673v-6.725a.674.674,0,0,0-.673-.672h-6.725a.675.675,0,0,0-.673.672V304.9A.675.675,0,0,0,368.173,305.57Z" transform="translate(-235.585 -235.585)" fill="#fff"/>
    <path id="Path_663" data-name="Path 663" d="M129.9,297.5h-6.725a.674.674,0,0,0-.673.672V304.9a.675.675,0,0,0,.673.673H129.9a.675.675,0,0,0,.673-.673v-6.725A.674.674,0,0,0,129.9,297.5Z" transform="translate(0 -235.585)" fill="#fff"/>
  </g>
</svg>
