<svg xmlns="http://www.w3.org/2000/svg" width="14.576" height="14.595" viewBox="0 0 14.576 14.595">
  <g id="noun-home-1095736" transform="translate(-178.339 -446.837)">
    <path id="Path_10" data-name="Path 10" d="M192.9,98.223a.325.325,0,0,0-.114-.244L185.828,92a.325.325,0,0,0-.425,0l-3.056,2.627V92.992a.326.326,0,0,0-.326-.326h-1.434a.326.326,0,0,0-.326.326v3.427l-1.812,1.559a.323.323,0,0,0-.111.247v1.711a.331.331,0,0,0,.2.308.319.319,0,0,0,.124.025.324.324,0,0,0,.212-.079l.868-.746v5.6a1.466,1.466,0,0,0,1.466,1.466h2.548a.318.318,0,0,1-.007-.065v-4.5a.652.652,0,0,1,.652-.652h2.183a.652.652,0,0,1,.652.652v4.5a.338.338,0,0,1-.007.065h2.842a1.466,1.466,0,0,0,1.466-1.466v-5.6l.833.716a.335.335,0,0,0,.3.074.325.325,0,0,0,.241-.318Z" transform="translate(0 354.915)" fill="#c2b6f1" fill-rule="evenodd"/>
  </g>
</svg>
