<svg xmlns="http://www.w3.org/2000/svg" width="19.307" height="21.159" viewBox="0 0 19.307 21.159">
  <g id="noun-notification-1206590" transform="translate(-148.401 -67.198)">
    <path id="Path_78563" data-name="Path 78563" d="M262.515,472.515a2.122,2.122,0,0,0,2.116-2.116H260.4A2.122,2.122,0,0,0,262.515,472.515Z" transform="translate(-106.709 -384.158)" fill="#fff"/>
    <path id="Path_78564" data-name="Path 78564" d="M158.451,74.207a5.231,5.231,0,0,1,.846-2.83,3.9,3.9,0,0,0-.582-.265,3.326,3.326,0,0,0,.132-.873,3.042,3.042,0,0,0-6.083,0,3.325,3.325,0,0,0,.132.873,7.326,7.326,0,0,0-4.5,6.718v6.824a.53.53,0,0,0,.529.529h13.753a.53.53,0,0,0,.529-.529V79.338a5.141,5.141,0,0,1-4.761-5.131Zm-4.628-3.967a1.984,1.984,0,1,1,3.967,0,1.83,1.83,0,0,1-.079.529,7.342,7.342,0,0,0-3.809-.027,1.543,1.543,0,0,1-.079-.5Zm8.331,12.034a.53.53,0,0,1-.529.529H149.988a.529.529,0,0,1,0-1.058h11.637a.53.53,0,0,1,.529.529Z" fill="#fff"/>
    <path id="Path_78565" data-name="Path 78565" d="M391.8,132.9a4.1,4.1,0,1,1-4.1-4.1,4.1,4.1,0,0,1,4.1,4.1" transform="translate(-224.093 -58.691)" fill="#05a91a"/>
  </g>
</svg>
