<svg xmlns="http://www.w3.org/2000/svg" width="17.727" height="17.727" viewBox="0 0 17.727 17.727">
  <g id="noun-profile-1326002" transform="translate(-80.124 -28)">
    <path id="Path_72289" data-name="Path 72289" d="M106.863,28a8.863,8.863,0,1,0,8.863,8.863A8.852,8.852,0,0,0,106.863,28Zm0,3.841a2.476,2.476,0,0,1,2.482,2.442,2.482,2.482,0,0,1-4.963,0A2.476,2.476,0,0,1,106.863,31.841Zm4.511,9.553a.888.888,0,0,1-.729.394H103.1a.841.841,0,0,1-.729-.394.879.879,0,0,1-.079-.827,4.964,4.964,0,0,1,9.179,0,.942.942,0,0,1-.1.827Z" transform="translate(-17.876)" fill="#c2b6f1"/>
  </g>
</svg>
