<svg xmlns="http://www.w3.org/2000/svg" width="14.362" height="14.368" viewBox="0 0 14.362 14.368">
  <g id="noun-user-preferences-4495293" transform="translate(-96.415 -26.306)">
    <path id="Path_12" data-name="Path 12" d="M110.538,32.282l-1.46-.3a5.685,5.685,0,0,0-.542-1.314l.826-1.233a.3.3,0,0,0-.039-.38l-1.293-1.29a.3.3,0,0,0-.377-.039l-1.242.823a5.525,5.525,0,0,0-1.311-.548l-.293-1.457a.3.3,0,0,0-.293-.242h-1.837a.3.3,0,0,0-.293.242l-.293,1.457a5.423,5.423,0,0,0-1.31.548l-1.239-.823a.3.3,0,0,0-.377.039l-1.3,1.29a.3.3,0,0,0-.036.38l.823,1.233a5.835,5.835,0,0,0-.539,1.314l-1.457.3a.3.3,0,0,0-.242.293v1.831a.3.3,0,0,0,.242.293l1.457.3a5.836,5.836,0,0,0,.539,1.314l-.823,1.239a.3.3,0,0,0,.036.377l1.3,1.3a.3.3,0,0,0,.377.036l1.233-.826a5.32,5.32,0,0,0,1.317.545l.293,1.457a.3.3,0,0,0,.293.242h1.837a.3.3,0,0,0,.293-.242l.29-1.457a5.361,5.361,0,0,0,1.32-.545l1.233.826a.3.3,0,0,0,.38-.036l1.293-1.3a.3.3,0,0,0,.039-.377l-.826-1.239A5.8,5.8,0,0,0,109.081,35l1.457-.3a.3.3,0,0,0,.239-.293V32.575a.3.3,0,0,0-.239-.293Zm-4.03,3.712a3.026,3.026,0,0,0-1.257-1.669,2.282,2.282,0,0,1-3.306,0,3.033,3.033,0,0,0-1.257,1.668,3.843,3.843,0,1,1,5.821,0Z" fill="#c2b6f1"/>
    <path id="Path_13" data-name="Path 13" d="M291.889,193.68a1.7,1.7,0,1,0,1.7,1.7A1.7,1.7,0,0,0,291.889,193.68Z" transform="translate(-188.293 -162.634)" fill="#c2b6f1"/>
  </g>
</svg>
