<svg xmlns="http://www.w3.org/2000/svg" width="20.307" height="14.892" viewBox="0 0 20.307 14.892">
  <g id="noun-customer-4523398" transform="translate(-87.504 -87.5)">
    <path id="Path_665" data-name="Path 665" d="M450.988,142.369A2.369,2.369,0,1,1,448.619,140a2.369,2.369,0,0,1,2.369,2.369" transform="translate(-344.869 -50.469)" fill="#fff"/>
    <path id="Path_666" data-name="Path 666" d="M518.511,254.27a3.75,3.75,0,0,1-2.789,1.672,6.007,6.007,0,0,1,.359,2.031V260h1.354a2.031,2.031,0,0,0,2.031-2.031v-1.354A3.385,3.385,0,0,0,518.511,254.27Z" transform="translate(-411.654 -160.319)" fill="#fff"/>
    <path id="Path_667" data-name="Path 667" d="M135.988,142.369A2.369,2.369,0,1,1,133.619,140a2.369,2.369,0,0,1,2.369,2.369" transform="translate(-42.054 -50.469)" fill="#fff"/>
    <path id="Path_668" data-name="Path 668" d="M88.458,254.27a3.385,3.385,0,0,0-.954,2.349v1.354A2.031,2.031,0,0,0,89.535,260h1.354v-2.031a6.013,6.013,0,0,1,.359-2.031,3.75,3.75,0,0,1-2.789-1.672Z" transform="translate(0 -160.319)" fill="#fff"/>
    <path id="Path_669" data-name="Path 669" d="M219.031,254.1a4.739,4.739,0,0,1-7.229,0,4.738,4.738,0,0,0-1.8,3.709v2.708a2.031,2.031,0,0,0,2.031,2.031H218.8a2.031,2.031,0,0,0,2.031-2.031v-2.708A4.738,4.738,0,0,0,219.031,254.1Z" transform="translate(-117.759 -160.156)" fill="#fff"/>
    <path id="Path_670" data-name="Path 670" d="M269.269,90.885a3.385,3.385,0,1,1-3.385-3.385,3.385,3.385,0,0,1,3.385,3.385" transform="translate(-168.227)" fill="#fff"/>
  </g>
</svg>
