<svg xmlns="http://www.w3.org/2000/svg" width="14.362" height="16.414" viewBox="0 0 14.362 16.414">
  <g id="noun-report-3889480" transform="translate(-105)">
    <path id="Path_19" data-name="Path 19" d="M262.5.513A.513.513,0,0,1,263.013,0h4.1a.513.513,0,0,1,.513.513V2.565a.513.513,0,0,1-.513.513h-4.1a.513.513,0,0,1-.513-.513Z" transform="translate(-152.884)" fill="#c2b6f1"/>
    <path id="Path_20" data-name="Path 20" d="M107.565,35h1.026v2.394a.7.7,0,0,0,.718.684h5.745a.7.7,0,0,0,.718-.684V35H116.8a2.565,2.565,0,0,1,2.565,2.565V47.823a2.565,2.565,0,0,1-2.565,2.565h-9.233A2.565,2.565,0,0,1,105,47.823V37.565A2.565,2.565,0,0,1,107.565,35Zm7.694,11.8a.513.513,0,0,1-1.026,0V40.642a.513.513,0,0,1,1.026,0Zm-3.078.513a.513.513,0,0,0,.513-.513v-4.1a.513.513,0,0,0-1.026,0v4.1A.513.513,0,0,0,112.181,47.311Zm-2.052-.513a.513.513,0,0,1-1.026,0V44.746a.513.513,0,0,1,1.026,0Z" transform="translate(0 -33.974)" fill="#c2b6f1" fill-rule="evenodd"/>
  </g>
</svg>
