<svg xmlns="http://www.w3.org/2000/svg" width="14.362" height="14.362" viewBox="0 0 14.362 14.362">
  <g id="noun-settings-1424173" transform="translate(-104.959 -88.551)">
    <path id="Path_21" data-name="Path 21" d="M165.725,88.551a.985.985,0,0,0-.118.006h0a.42.42,0,0,0-.407.308,4.443,4.443,0,0,1-.407,1.037.9.9,0,0,1-.466.453.907.907,0,0,1-.637-.164,4.49,4.49,0,0,1-.86-.709h0a.42.42,0,0,0-.492-.079,7.276,7.276,0,0,0-1.785,1.346.42.42,0,0,0-.059.492,4.462,4.462,0,0,1,.446,1.017.662.662,0,0,1-.578.985,4.417,4.417,0,0,1-1.1.105.42.42,0,0,0-.407.3,7.161,7.161,0,0,0-.309,2.081c0,.074.006.116.006.125h0a.42.42,0,0,0,.309.4,4.505,4.505,0,0,1,1.037.4.672.672,0,0,1,.282,1.1,4.479,4.479,0,0,1-.709.853h0a.42.42,0,0,0-.079.506,7.134,7.134,0,0,0,1.332,1.772h0a.42.42,0,0,0,.505.066,4.479,4.479,0,0,1,1.024-.446.668.668,0,0,1,.985.578,4.463,4.463,0,0,1,.105,1.109.42.42,0,0,0,.3.4,7.208,7.208,0,0,0,2.087.315c.076,0,.1-.006.092-.006h0a.42.42,0,0,0,.407-.308,4.447,4.447,0,0,1,.407-1.037.92.92,0,0,1,.486-.453.883.883,0,0,1,.624.171,4.486,4.486,0,0,1,.86.709.42.42,0,0,0,.5.079,7.205,7.205,0,0,0,1.785-1.346h0a.42.42,0,0,0,.066-.5A4.493,4.493,0,0,1,170.5,99.2a.9.9,0,0,1,.013-.656.914.914,0,0,1,.571-.335,4.384,4.384,0,0,1,1.1-.105h0a.42.42,0,0,0,.414-.3,7.2,7.2,0,0,0,.309-2.074.4.4,0,0,0-.013-.112h0a.42.42,0,0,0-.308-.4,4.405,4.405,0,0,1-1.031-.413.658.658,0,0,1-.282-1.1,4.426,4.426,0,0,1,.7-.86h0a.42.42,0,0,0,.079-.5,7.232,7.232,0,0,0-1.339-1.785.42.42,0,0,0-.5-.059,4.487,4.487,0,0,1-1.024.446.9.9,0,0,1-.65-.006.919.919,0,0,1-.341-.571,4.444,4.444,0,0,1-.1-1.109.42.42,0,0,0-.3-.413,7.162,7.162,0,0,0-2.074-.3Zm0,4.155a3.026,3.026,0,1,1-3.033,3.026A3.031,3.031,0,0,1,165.725,92.706Zm0,.834a2.189,2.189,0,1,0,2.186,2.192A2.189,2.189,0,0,0,165.725,93.54Z" transform="translate(-53.585)" fill="#c2b6f1"/>
  </g>
</svg>
