<svg xmlns="http://www.w3.org/2000/svg" width="16.822" height="19.13" viewBox="0 0 16.822 19.13">
  <g id="noun-vendor-4306483" transform="translate(-116.059 -14.558)">
    <path id="Path_671" data-name="Path 671" d="M159.527,234.241v7.1H147.472v-7.1a2.939,2.939,0,0,1-1.31-.161v10.4a.83.83,0,0,0,.827.827h13.022a.83.83,0,0,0,.827-.827V234.1a3.206,3.206,0,0,1-1.31.141Z" transform="translate(-29.019 -211.619)" fill="#fff"/>
    <path id="Path_672" data-name="Path 672" d="M132.7,18.731l-.645-1.572a9.961,9.961,0,0,1-.5-1.673,1.129,1.129,0,0,0-1.129-.927H118.514a1.145,1.145,0,0,0-1.129.927,8.189,8.189,0,0,1-.5,1.693l-.645,1.572a2.115,2.115,0,0,0-.06,1.532,2.078,2.078,0,0,0,1.955,1.391,2.049,2.049,0,0,0,1.552-.706,2.081,2.081,0,0,0,1.552.706h.121a2.1,2.1,0,0,0,1.512-.665,2.061,2.061,0,0,0,1.512.665h.161a2.061,2.061,0,0,0,1.512-.665,2.1,2.1,0,0,0,1.512.665h.141a2.08,2.08,0,0,0,1.552-.706,2.049,2.049,0,0,0,1.552.706,2.078,2.078,0,0,0,1.955-1.391,2.166,2.166,0,0,0-.061-1.552Z" transform="translate(0 0)" fill="#fff"/>
    <path id="Path_673" data-name="Path 673" d="M306.812,240.1a1.613,1.613,0,1,0-1.613-1.613A1.617,1.617,0,0,0,306.812,240.1Z" transform="translate(-182.331 -214.317)" fill="#fff"/>
    <path id="Path_674" data-name="Path 674" d="M276.08,341.654v.827H281.4v-.827a1.829,1.829,0,0,0-1.25-1.734,2.467,2.467,0,0,1-2.822,0A1.829,1.829,0,0,0,276.08,341.654Z" transform="translate(-154.26 -313.65)" fill="#fff"/>
  </g>
</svg>
